<svg xmlns="http://www.w3.org/2000/svg" viewBox="0 0 603.42 123.42"><defs><style>.cls-1{fill:#2b282b;}.cls-2{fill:#5a2582;}</style></defs><title>LgoSvg-01</title><g id="Layer_2" data-name="Layer 2"><g id="aa7bae02-e79e-4d6b-a496-aba15f39787c"><polygon class="cls-1" points="121.99 12.12 97.59 82.48 109.79 84.59 142.47 0 35.45 35.38 22.56 83.07 97.36 103.74 60.53 118.05 8.52 95.79 22.56 85.85 0 95.99 59.61 123.42 113.24 103.14 28.77 81.88 39.36 38.95 121.99 12.12"/><path class="cls-2" d="M155.74,103.56H128.8l29.9-79.93,12.36,33.25Zm34.82-9.15H163.19L169,77.83h15.14l-22.39-58h27.19l33.37,83.71H194.1Z"/><path class="cls-2" d="M230.24,103.56v-76L256.3,71.33v32.23Zm.06-83.71H260l22.46,37.22,17.66-30.28V68.93L280,103.56Zm73.87,83.71V19.85h27.88v83.71Z"/><path class="cls-2" d="M346.82,103.56V19.85h27.88v83.71Zm32.3-67V19.85H411l16.78,16.72V61.68L414.89,74.54,414,72.78l-26.18,3.47,1,2.21h-9.72V62.24h20.94V36.57Zm51.48,67H400.82l-12-25.11H411l3.91-3.91Z"/><path class="cls-2" d="M445.58,4.18V119.24H603.42V4.18Zm60.21,33.47H497.4V85.71h8.39v17.85H461.13V85.71h8.39V37.64h-8.39V19.85h44.66ZM566,103.56H537V42.43h29Zm21.83-65.48H515.19V19.85h72.67Z"/></g></g></svg>